<?xml version="1.0" encoding="utf-8" ?>
<svg xmlns="http://www.w3.org/2000/svg" xmlns:xlink="http://www.w3.org/1999/xlink" width="1000" height="1000">
	<path fill="#202020" transform="matrix(1.95313 0 0 1.95313 0 3.05176e-05)" d="M156.16 283.375C132.095 276.304 131.47 263.041 140.125 240.963L195.962 99.3958C199.581 89.9544 202.853 80.2152 206.896 70.9564C213.499 55.8373 226.483 58.0165 240.012 58.0162L284.072 58.0108C299.833 58.0086 300.133 57.4131 312.143 68.2784C326.25 81.4231 321.238 91.0675 312.542 105.531L278.252 161.993C271.258 173.476 264.05 184.917 257.424 196.615L361.251 184.884C368.924 184.069 376.577 183.091 384.256 182.312C397.231 180.996 402.375 180.679 411.218 191.931C418.815 195.487 422.389 205.413 418.734 213.05C416.478 217.764 412.21 221.342 408.692 225.105L397.15 237.399C378.926 256.884 361.272 276.978 342.758 296.184C342.054 296.915 338.957 299.76 339.029 300.446L341.443 300.736C347.368 300.724 355.13 299.161 357.962 305.739C358.01 306.841 358.041 307.908 357.962 309.01C367.793 315.666 356.465 323.619 351.477 328.718L236.855 446.152C232.188 450.941 221.838 465.62 214.777 456.353C209.136 459.304 202.1 454.573 202.933 448.306C204.187 438.872 206.976 429.278 209.149 420.022L234.4 315.153C236.903 304.813 239.106 294.239 242.109 284.042C235.076 283.579 226.73 284.799 219.559 285.158C208.251 285.724 196.936 285.784 185.627 286.328C175.491 286.816 165.307 288.821 156.16 283.375ZM148.929 276.198C140.656 261.038 151.13 246.645 157.107 231.556L206.962 105.396C208.96 100.197 211.058 95.0326 213.009 89.8169C219.865 71.4943 218.637 68.2531 237.969 68.2674L306.036 68.2784C298.986 60.6661 289.315 62.3469 279.998 62.3783L235.799 62.3708C217.799 62.361 214.697 62.374 208.376 78.8648L151.143 224.605C145.437 238.956 129.152 266.003 148.929 276.198ZM214.777 450.466C215.564 444.029 217.388 437.652 218.875 431.343L248.804 307.514C250.792 299.275 253.101 291.083 254.959 282.821L254.775 282.353C252.304 281.854 249.371 283.246 246.864 283.375L210.655 432.884C209.939 435.993 204.591 451.347 209.635 452.42C211.767 452.874 213.359 451.874 214.777 450.466ZM251.724 206.926L359.903 195.426L389.169 192.701C393.691 192.304 401.236 192.17 405.197 190.936C397.193 182.023 378.989 186.971 367.617 188.255L272.904 199.073C267.247 199.758 260.349 199.972 254.959 201.598C253.467 203.328 252.459 204.746 251.724 206.926ZM336.475 310.129C341.68 310.243 346.888 309.642 352.081 310.129C357.712 302.87 345.662 305.187 341.861 304.808L341.443 304.764C339.938 306.687 338.32 308.522 336.475 310.129Z"/>
	<path fill="#FFD100" transform="matrix(1.95313 0 0 1.95313 0 3.05176e-05)" d="M357.962 305.739C358.01 306.841 358.041 307.908 357.962 309.01C367.793 315.666 356.465 323.619 351.477 328.718L236.855 446.152C232.188 450.941 221.838 465.62 214.777 456.353C218.4 453.223 221.516 449.618 224.826 446.172L294.76 374.619C309.438 359.646 324.183 344.756 338.66 329.585C343.612 324.395 357.804 312.712 357.962 305.739Z"/>
	<path fill="#4D4D4D" transform="matrix(1.95313 0 0 1.95313 0 3.05176e-05)" d="M411.218 191.931C418.815 195.487 422.389 205.413 418.734 213.05C416.478 217.764 412.21 221.342 408.692 225.105L397.15 237.399C378.926 256.884 361.272 276.978 342.758 296.184C342.054 296.915 338.957 299.76 339.029 300.446L341.443 300.736C336.519 300.613 331.647 300.171 326.732 300.736C329.233 297.004 332.55 293.77 335.572 290.454L394.153 226.9C405.348 214.792 416.385 209.505 411.218 191.931Z"/>
	<path fill="#4D4D4D" transform="matrix(1.95313 0 0 1.95313 0 3.05176e-05)" d="M312.143 68.2784C326.25 81.4231 321.238 91.0675 312.542 105.531L278.252 161.993C271.258 173.476 264.05 184.917 257.424 196.615C253.868 197.767 249.446 197.717 245.708 197.915L306.429 97.8564C309.127 93.4941 312.82 88.6567 314.207 83.6782C315.827 77.8676 312.927 73.7968 312.143 68.2784Z"/>
	<path fill="#4D4D4D" transform="matrix(1.95313 0 0 1.95313 0 3.05176e-05)" d="M156.16 283.375C156.457 283.201 235.468 277.798 243.974 277.034C243.443 279.363 242.973 281.814 242.109 284.042C235.076 283.579 226.73 284.799 219.559 285.158C208.251 285.724 196.936 285.784 185.627 286.328C175.491 286.816 165.307 288.821 156.16 283.375Z"/>
	<path fill="#4D4D4D" transform="matrix(1.95313 0 0 1.95313 0 3.05176e-05)" d="M306.036 68.2784C315.5 76.3266 308.265 86.8696 303.661 94.4889L252.972 178.673C250.601 182.587 248.273 186.535 245.863 190.424C235.853 206.572 241.314 201.603 254.959 201.598C253.467 203.328 252.459 204.746 251.724 206.926L359.903 195.426L389.169 192.701C393.691 192.304 401.236 192.17 405.197 190.936C414.825 201.74 403.618 210.974 396.792 218.152L324.302 296.542C312.276 309.302 332.719 303.595 341.443 304.764C339.938 306.687 338.32 308.522 336.475 310.129C324.525 310.592 312.585 311.305 300.627 311.368C280.99 311.473 279.531 310.828 265.501 295.013C261.937 290.995 258.339 286.997 254.959 282.821L254.775 282.353C252.304 281.854 249.371 283.246 246.864 283.375C249.511 272.803 250.464 272.49 238.429 273.318L181.867 277.475C173.009 278.056 156.805 281.343 148.929 276.198C140.656 261.038 151.13 246.645 157.107 231.556L206.962 105.396C208.96 100.197 211.058 95.0326 213.009 89.8169C219.865 71.4943 218.637 68.2531 237.969 68.2674L306.036 68.2784Z"/>
	<path fill="#FFD100" transform="matrix(1.95313 0 0 1.95313 0 3.05176e-05)" d="M254.959 282.821C258.339 286.997 261.937 290.995 265.501 295.013C279.531 310.828 280.99 311.473 300.627 311.368C312.585 311.305 324.525 310.592 336.475 310.129C341.68 310.243 346.888 309.642 352.081 310.129C346.835 314.689 342.1 320.104 337.275 325.11L226.003 438.664C222.275 442.577 218.693 446.751 214.777 450.466C215.564 444.029 217.388 437.652 218.875 431.343L248.804 307.514C250.792 299.275 253.101 291.083 254.959 282.821Z"/>
	<path fill="#FFEE32" transform="matrix(1.95313 0 0 1.95313 0 3.05176e-05)" d="M184.765 309.01C194.918 302.618 193.487 304.802 190.05 313.745C190.502 317.044 186.832 324.727 185.901 328.308C194.62 326.52 202.729 321.889 211.128 319.091C208.865 324.568 196.64 341.089 192.922 346.476L174.303 373.459C172.495 376.13 164.825 389.4 162.367 390.462C154.625 393.808 157.557 385.001 157.603 383.768L157.234 384.203C155.092 386.729 152.054 386.343 152.932 383.355C154.109 379.347 157.5 372.963 159.383 368.924L170.686 344.139C165.212 346.273 139.957 358.068 136.312 356.411C129.656 353.384 138.233 345.972 138.231 345.965C136.15 346.61 135.392 346.022 134.534 344.139C129.362 342.9 102.008 358.767 96.3188 355.649C92.8013 353.721 91.4982 349.272 93.6521 345.831C96.0762 341.959 112.883 337.039 117.464 335.283L152.747 321.547C162.56 317.734 175.118 311.439 184.765 309.01Z"/>
	<path fill="#FFEE32" transform="matrix(1.95313 0 0 1.95313 0 3.05176e-05)" d="M157.603 383.768C158.438 381.017 159.84 378.325 161.016 375.699L166.644 363.098C172.79 349.362 182.125 326.239 190.05 313.745C190.502 317.044 186.832 324.727 185.901 328.308C194.62 326.52 202.729 321.889 211.128 319.091C208.865 324.568 196.64 341.089 192.922 346.476L174.303 373.459C172.495 376.13 164.825 389.4 162.367 390.462C154.625 393.808 157.557 385.001 157.603 383.768Z"/>
	<path fill="#FFEE32" transform="matrix(1.95313 0 0 1.95313 0 3.05176e-05)" d="M134.534 344.139C129.362 342.9 102.008 358.767 96.3188 355.649C92.8013 353.721 91.4982 349.272 93.6521 345.831C96.0762 341.959 112.883 337.039 117.464 335.283L152.747 321.547C162.56 317.734 175.118 311.439 184.765 309.01C182.874 311.04 180.02 312.439 177.743 314.033C169.559 319.763 139.798 337.912 134.534 344.139Z"/>
	<path fill="#202020" transform="matrix(1.95313 0 0 1.95313 0 3.05176e-05)" d="M184.765 309.01C194.918 302.618 193.487 304.802 190.05 313.745C182.125 326.239 172.79 349.362 166.644 363.098L161.016 375.699C159.84 378.325 158.438 381.017 157.603 383.768L157.234 384.203C155.092 386.729 152.054 386.343 152.932 383.355C154.109 379.347 157.5 372.963 159.383 368.924L170.686 344.139C175.588 335.044 180.111 324.366 184.765 314.934C181.402 316.711 178.278 318.949 175.12 321.064L161.017 330.512C155.863 333.928 142.192 341.871 138.231 345.965C136.15 346.61 135.392 346.022 134.534 344.139C139.798 337.912 169.559 319.763 177.743 314.033C180.02 312.439 182.874 311.04 184.765 309.01Z"/>
	<path fill="#FFEE32" transform="matrix(1.95313 0 0 1.95313 0 3.05176e-05)" d="M340.077 87.2102C341.854 90.1037 347.341 103.246 349.15 104.278C349.896 100.887 350.947 89.1358 354.566 89.3916C356.855 91.1651 348.732 132.575 347.137 139.579C351.033 137.35 354.732 134.738 358.471 132.252L376.731 119.966C380.379 117.472 391.811 106.669 393.283 113.95C394.286 116.74 399.333 119.644 401.296 122.621C386.229 135.297 370.01 150.743 355.84 164.473C356.484 159.604 358.308 154.637 359.673 149.918C356.054 151.365 352.559 153.258 349.094 155.047L331.761 164.019C326.918 166.541 322.195 169.147 317.08 171.092C319.55 155.182 326.258 134.087 330.609 118.458L335.893 100.049C337.137 95.7721 338.223 91.2691 340.077 87.2102Z"/>
	<path fill="#202020" transform="matrix(1.95313 0 0 1.95313 0 3.05176e-05)" d="M349.15 104.278C349.896 100.887 350.947 89.1358 354.566 89.3916C356.855 91.1651 348.732 132.575 347.137 139.579C351.033 137.35 354.732 134.738 358.471 132.252L376.731 119.966C380.379 117.472 391.811 106.669 393.283 113.95C376.624 125.678 359.181 136.292 342.564 148.126C342.88 134.893 347.135 117.808 349.15 104.278Z"/>
	<path fill="#202020" transform="matrix(1.95313 0 0 1.95313 0 3.05176e-05)" d="M146.23 161.624C153.222 162.61 142.047 182.365 140.06 187.903C131.321 212.251 124.341 236.923 120.194 262.453C119.677 265.632 119.973 270.496 117.419 272.801C112.204 272.171 116.388 259.387 116.937 256.211C119.113 243.642 138.28 169.584 146.23 161.624Z"/>
	<path fill="white" transform="matrix(1.95313 0 0 1.95313 0 3.05176e-05)" d="M361.446 49.347Q361.728 49.327 362.011 49.3209Q362.294 49.3147 362.578 49.3225Q362.861 49.3302 363.143 49.3518Q363.425 49.3734 363.706 49.4088Q363.987 49.4442 364.266 49.4933Q364.544 49.5424 364.821 49.6052Q365.097 49.6679 365.369 49.7441Q365.642 49.8202 365.911 49.9097Q366.179 49.9991 366.443 50.1016Q366.707 50.2041 366.966 50.3194Q367.224 50.4347 367.477 50.5626Q367.729 50.6904 367.975 50.8305Q368.221 50.9705 368.46 51.1225Q368.699 51.2744 368.93 51.4379Q369.161 51.6014 369.384 51.776Q369.607 51.9506 369.821 52.1359Q370.035 52.3212 370.24 52.5168Q370.445 52.7123 370.639 52.9177Q370.834 53.1231 371.019 53.3377Q371.203 53.5524 371.377 53.7759Q371.551 53.9993 371.714 54.231Q371.876 54.4627 372.028 54.7021Q372.179 54.9415 372.318 55.188Q372.457 55.4345 372.584 55.6876Q372.711 55.9406 372.826 56.1996Q372.94 56.4585 373.042 56.7228Q373.143 56.987 373.232 57.2559Q373.32 57.5248 373.395 57.7978Q373.471 58.0707 373.532 58.347Q373.594 58.6233 373.642 58.9023Q373.69 59.1812 373.725 59.4622Q373.759 59.7432 373.78 60.0256Q373.801 60.308 373.807 60.591Q373.814 60.874 373.807 61.157Q373.8 61.44 373.779 61.7224Q373.758 62.0047 373.723 62.2857Q373.688 62.5666 373.64 62.8456Q373.591 63.1245 373.529 63.4007Q373.467 63.6769 373.392 63.9497Q373.316 64.2226 373.227 64.4914Q373.138 64.7602 373.037 65.0243Q372.935 65.2884 372.82 65.5473Q372.705 65.8061 372.578 66.059Q372.451 66.3118 372.311 66.5582Q372.172 66.8045 372.02 67.0438Q371.869 67.283 371.706 67.5145Q371.543 67.746 371.369 67.9692Q371.195 68.1925 371.01 68.4069Q370.825 68.6214 370.63 68.8265Q370.435 69.0316 370.23 69.227Q370.025 69.4223 369.811 69.6073Q369.596 69.7924 369.373 69.9667Q369.15 70.1411 368.919 70.3042Q368.688 70.4674 368.449 70.6191Q368.209 70.7708 367.963 70.9105Q367.717 71.0503 367.464 71.1778Q367.212 71.3054 366.953 71.4203Q366.694 71.5353 366.43 71.6375Q366.166 71.7397 365.897 71.8288Q365.629 71.918 365.356 71.9938Q365.083 72.0697 364.807 72.132Q364.531 72.1944 364.252 72.2432Q363.973 72.292 363.692 72.3271Q363.411 72.3621 363.129 72.3834Q362.846 72.4047 362.562 72.4121Q362.278 72.4195 361.994 72.4129Q361.711 72.4063 361.427 72.3858Q361.144 72.3652 360.862 72.3308Q360.581 72.2964 360.301 72.2482Q360.021 72.2 359.744 72.1381Q359.467 72.0762 359.193 72.0007Q358.92 71.9253 358.65 71.8365Q358.38 71.7477 358.115 71.6457Q357.85 71.5438 357.591 71.429Q357.331 71.3141 357.077 71.1866Q356.824 71.0592 356.576 70.9194Q356.329 70.7796 356.089 70.6279Q355.849 70.4762 355.617 70.3128Q355.385 70.1494 355.161 69.9749Q354.937 69.8003 354.722 69.6149Q354.507 69.4296 354.301 69.2339Q354.096 69.0382 353.9 68.8326Q353.704 68.627 353.519 68.4121Q353.333 68.1971 353.158 67.9733Q352.984 67.7495 352.82 67.5174Q352.657 67.2853 352.505 67.0454Q352.353 66.8056 352.213 66.5585Q352.073 66.3115 351.946 66.0579Q351.818 65.8043 351.703 65.5447Q351.588 65.2851 351.486 65.0202Q351.384 64.7553 351.295 64.4857Q351.206 64.2161 351.13 63.9424Q351.055 63.6687 350.993 63.3917Q350.931 63.1147 350.882 62.8349Q350.834 62.5552 350.799 62.2734Q350.765 61.9916 350.744 61.7084Q350.723 61.4252 350.717 61.1414Q350.71 60.8576 350.717 60.5738Q350.724 60.29 350.745 60.0069Q350.766 59.7237 350.802 59.442Q350.837 59.1603 350.885 58.8806Q350.934 58.6009 350.997 58.324Q351.059 58.047 351.135 57.7735Q351.211 57.5 351.301 57.2305Q351.39 56.9611 351.493 56.6963Q351.595 56.4316 351.711 56.1722Q351.826 55.9128 351.954 55.6594Q352.082 55.406 352.222 55.1592Q352.363 54.9124 352.515 54.6728Q352.667 54.4331 352.831 54.2013Q352.995 53.9695 353.17 53.7459Q353.345 53.5224 353.531 53.3078Q353.717 53.0932 353.913 52.8879Q354.109 52.6827 354.315 52.4873Q354.521 52.2919 354.736 52.1069Q354.952 51.9219 355.176 51.7477Q355.4 51.5735 355.632 51.4105Q355.865 51.2476 356.105 51.0962Q356.345 50.9449 356.593 50.8055Q356.84 50.6661 357.094 50.5391Q357.348 50.412 357.608 50.2976Q357.867 50.1832 358.133 50.0817Q358.398 49.9801 358.668 49.8918Q358.937 49.8034 359.211 49.7284Q359.485 49.6534 359.762 49.5919Q360.039 49.5305 360.319 49.4827Q360.599 49.435 360.881 49.401Q361.163 49.3671 361.446 49.347Z"/>
	<path fill="white" transform="matrix(1.95313 0 0 1.95313 0 3.05176e-05)" d="M170.388 436.376Q170.661 436.346 170.935 436.329Q171.209 436.312 171.483 436.309Q171.758 436.306 172.032 436.316Q172.306 436.326 172.58 436.35Q172.853 436.373 173.125 436.41Q173.397 436.447 173.667 436.497Q173.937 436.548 174.204 436.611Q174.471 436.675 174.734 436.751Q174.998 436.827 175.258 436.917Q175.517 437.006 175.772 437.108Q176.027 437.21 176.276 437.324Q176.526 437.438 176.77 437.565Q177.013 437.691 177.25 437.829Q177.488 437.968 177.718 438.117Q177.948 438.267 178.17 438.428Q178.393 438.588 178.607 438.76Q178.821 438.931 179.027 439.113Q179.233 439.295 179.429 439.486Q179.626 439.678 179.813 439.879Q179.999 440.08 180.176 440.29Q180.353 440.5 180.519 440.718Q180.686 440.937 180.841 441.163Q180.996 441.389 181.14 441.623Q181.285 441.857 181.417 442.097Q181.549 442.337 181.67 442.584Q181.79 442.831 181.899 443.083Q182.007 443.335 182.103 443.592Q182.199 443.849 182.282 444.111Q182.365 444.373 182.435 444.638Q182.505 444.903 182.562 445.172Q182.619 445.44 182.663 445.711Q182.707 445.982 182.737 446.255Q182.767 446.528 182.785 446.802Q182.802 447.076 182.805 447.35Q182.809 447.625 182.799 447.899Q182.789 448.173 182.766 448.447Q182.742 448.72 182.706 448.992Q182.669 449.264 182.619 449.534Q182.569 449.804 182.506 450.071Q182.443 450.338 182.366 450.602Q182.29 450.865 182.201 451.125Q182.112 451.385 182.011 451.64Q181.909 451.895 181.795 452.144Q181.681 452.394 181.555 452.638Q181.429 452.881 181.291 453.119Q181.153 453.356 181.003 453.586Q180.854 453.817 180.693 454.039Q180.533 454.262 180.362 454.476Q180.19 454.691 180.009 454.897Q179.827 455.103 179.636 455.299Q179.445 455.496 179.244 455.683Q179.043 455.87 178.833 456.047Q178.623 456.224 178.405 456.391Q178.187 456.557 177.961 456.713Q177.735 456.868 177.501 457.013Q177.268 457.157 177.028 457.29Q176.787 457.422 176.541 457.543Q176.294 457.664 176.042 457.772Q175.79 457.881 175.533 457.977Q175.276 458.073 175.014 458.156Q174.753 458.24 174.488 458.31Q174.222 458.381 173.954 458.438Q173.686 458.495 173.415 458.539Q173.144 458.583 172.871 458.614Q172.598 458.645 172.324 458.662Q172.049 458.68 171.775 458.683Q171.5 458.687 171.225 458.678Q170.95 458.668 170.677 458.645Q170.403 458.622 170.13 458.585Q169.858 458.549 169.588 458.499Q169.317 458.449 169.05 458.386Q168.782 458.323 168.518 458.246Q168.254 458.17 167.994 458.081Q167.734 457.992 167.479 457.891Q167.224 457.789 166.974 457.675Q166.724 457.561 166.479 457.435Q166.235 457.308 165.998 457.17Q165.76 457.032 165.529 456.883Q165.299 456.733 165.076 456.572Q164.853 456.412 164.638 456.24Q164.423 456.069 164.217 455.887Q164.011 455.705 163.814 455.514Q163.617 455.322 163.43 455.121Q163.243 454.92 163.066 454.709Q162.888 454.499 162.722 454.281Q162.555 454.062 162.399 453.836Q162.244 453.609 162.099 453.376Q161.955 453.142 161.822 452.901Q161.689 452.66 161.568 452.414Q161.448 452.167 161.339 451.914Q161.231 451.662 161.135 451.404Q161.039 451.147 160.955 450.885Q160.872 450.623 160.802 450.357Q160.732 450.091 160.674 449.823Q160.617 449.554 160.573 449.282Q160.529 449.011 160.499 448.738Q160.468 448.465 160.451 448.191Q160.434 447.916 160.431 447.641Q160.427 447.367 160.437 447.092Q160.447 446.817 160.471 446.543Q160.494 446.27 160.531 445.997Q160.568 445.725 160.618 445.455Q160.668 445.185 160.731 444.917Q160.795 444.65 160.871 444.386Q160.947 444.122 161.037 443.862Q161.126 443.602 161.228 443.346Q161.33 443.091 161.444 442.841Q161.559 442.591 161.685 442.347Q161.812 442.103 161.95 441.866Q162.088 441.628 162.238 441.398Q162.388 441.168 162.549 440.945Q162.71 440.722 162.881 440.507Q163.053 440.293 163.235 440.087Q163.417 439.881 163.609 439.684Q163.801 439.487 164.002 439.3Q164.204 439.113 164.414 438.936Q164.624 438.759 164.843 438.593Q165.061 438.426 165.288 438.271Q165.515 438.115 165.749 437.971Q165.983 437.827 166.223 437.695Q166.464 437.562 166.711 437.442Q166.958 437.321 167.211 437.213Q167.463 437.104 167.721 437.009Q167.979 436.913 168.241 436.83Q168.503 436.747 168.769 436.677Q169.034 436.607 169.303 436.55Q169.572 436.493 169.843 436.45Q170.115 436.406 170.388 436.376Z"/>
	<path fill="#202020" transform="matrix(1.95313 0 0 1.95313 0 3.05176e-05)" d="M341.443 383.768C342.787 383.765 344.097 384.713 343.784 386.188C343.288 388.53 304.582 427.155 300.413 430.338C291.175 429.111 313.04 412.265 315.472 409.778L331.782 393.14C334.716 390.132 337.721 385.8 341.443 383.768Z"/>
	<path fill="#202020" transform="matrix(1.95313 0 0 1.95313 0 3.05176e-05)" d="M172.654 101.207C174.219 101.179 175.108 101.081 175.813 102.625C175.189 106.558 164.794 127.793 163.205 129.468C154.69 130.255 171 103.413 172.654 101.207Z"/>
	<path fill="#202020" transform="matrix(1.95313 0 0 1.95313 0 3.05176e-05)" d="M157.603 134.574C159.11 134.93 159.562 135.796 160.368 136.999C159.291 140.613 154.014 154.017 151.872 155.802C143.915 155.614 156.688 135.48 157.603 134.574Z"/>
	<path fill="#202020" transform="matrix(1.95313 0 0 1.95313 0 3.05176e-05)" d="M365.06 352.647C371.73 354.726 360.511 366.12 357.962 367.855C353.122 365.755 363.514 353.564 365.06 352.647Z"/>
	<path fill="#202020" transform="matrix(1.95313 0 0 1.95313 0 3.05176e-05)" d="M349.122 373.382Q349.228 373.356 349.335 373.341Q349.443 373.325 349.551 373.32Q349.66 373.315 349.769 373.32Q349.877 373.325 349.985 373.341Q350.093 373.356 350.198 373.382Q350.304 373.408 350.407 373.443Q350.509 373.479 350.608 373.524Q350.707 373.57 350.801 373.624Q350.895 373.679 350.983 373.742Q351.072 373.805 351.154 373.877Q351.236 373.948 351.31 374.027Q351.385 374.106 351.452 374.192Q351.519 374.278 351.577 374.37Q351.636 374.461 351.685 374.558Q351.734 374.655 351.774 374.756Q351.814 374.857 351.844 374.962Q351.874 375.067 351.894 375.173Q351.914 375.28 351.923 375.389Q351.933 375.497 351.932 375.606Q351.932 375.715 351.92 375.823Q351.909 375.931 351.888 376.038Q351.866 376.144 351.835 376.248Q351.803 376.352 351.762 376.453Q351.721 376.553 351.67 376.65Q351.619 376.746 351.559 376.837Q351.5 376.928 351.432 377.012Q351.363 377.097 351.288 377.175Q351.212 377.253 351.129 377.323Q351.046 377.394 350.956 377.456Q350.867 377.518 350.772 377.571Q350.677 377.624 350.578 377.668Q350.478 377.712 350.375 377.746Q350.23 377.794 350.08 377.822Q349.93 377.85 349.777 377.858Q349.625 377.866 349.472 377.853Q349.32 377.841 349.171 377.808Q349.022 377.775 348.879 377.722Q348.735 377.67 348.6 377.598Q348.465 377.527 348.341 377.438Q348.216 377.35 348.105 377.245Q347.994 377.14 347.897 377.022Q347.801 376.903 347.721 376.773Q347.642 376.643 347.58 376.503Q347.519 376.363 347.477 376.216Q347.435 376.07 347.412 375.918Q347.39 375.767 347.388 375.615Q347.387 375.462 347.405 375.31Q347.424 375.159 347.463 375.011Q347.502 374.863 347.56 374.722Q347.619 374.581 347.695 374.449Q347.772 374.317 347.866 374.196Q347.959 374.075 348.068 373.968Q348.177 373.861 348.3 373.77Q348.422 373.678 348.556 373.604Q348.689 373.53 348.831 373.474Q348.974 373.418 349.122 373.382Z"/>
</svg>
